<?xml version="1.0" encoding="UTF-8" standalone="no"?>
<!-- Created with Inkscape (http://www.inkscape.org/) -->

<svg
   xmlns:dc="http://purl.org/dc/elements/1.1/"
   xmlns:cc="http://creativecommons.org/ns#"
   xmlns:rdf="http://www.w3.org/1999/02/22-rdf-syntax-ns#"
   xmlns:svg="http://www.w3.org/2000/svg"
   xmlns="http://www.w3.org/2000/svg"
   xmlns:sodipodi="http://sodipodi.sourceforge.net/DTD/sodipodi-0.dtd"
   xmlns:inkscape="http://www.inkscape.org/namespaces/inkscape"
   width="202.64647mm"
   height="198.50067mm"
   viewBox="0 0 202.64647 198.50067"
   version="1.1"
   id="svg8"
   inkscape:version="0.92.4 5da689c313, 2019-01-14"
   sodipodi:docname="snt_2017_s.svg"
   inkscape:export-filename="/home/danieln/Downloads/logos/snt_2017_s.png"
   inkscape:export-xdpi="310.81305"
   inkscape:export-ydpi="310.81305">
  <defs
     id="defs2" />
  <sodipodi:namedview
     id="base"
     pagecolor="#ffffff"
     bordercolor="#666666"
     borderopacity="1.0"
     inkscape:pageopacity="0.0"
     inkscape:pageshadow="2"
     inkscape:zoom="0.45254834"
     inkscape:cx="295.1491"
     inkscape:cy="325.0836"
     inkscape:document-units="mm"
     inkscape:current-layer="layer1"
     showgrid="false"
     inkscape:window-width="1200"
     inkscape:window-height="610"
     inkscape:window-x="1920"
     inkscape:window-y="2510"
     inkscape:window-maximized="0"
     inkscape:snap-global="false"
     inkscape:snap-smooth-nodes="true"
     fit-margin-top="0"
     fit-margin-left="0"
     fit-margin-right="0"
     fit-margin-bottom="0" />
  <metadata
     id="metadata5">
    <rdf:RDF>
      <cc:Work
         rdf:about="">
        <dc:format>image/svg+xml</dc:format>
        <dc:type
           rdf:resource="http://purl.org/dc/dcmitype/StillImage" />
        <dc:title />
      </cc:Work>
    </rdf:RDF>
  </metadata>
  <g
     inkscape:label="Layer 1"
     inkscape:groupmode="layer"
     id="layer1"
     style="display:inline"
     transform="translate(1204.4343,-47.640041)">
    <text
       id="text5563"
       y="22.353827"
       x="-149.67093"
       style="font-style:normal;font-weight:normal;font-size:10.58333302px;line-height:6.61458302px;font-family:sans-serif;letter-spacing:0px;word-spacing:0px;fill:#000000;fill-opacity:1;stroke:none;stroke-width:0.26458332px;stroke-linecap:butt;stroke-linejoin:miter;stroke-opacity:1"
       xml:space="preserve"><tspan
         style="stroke-width:0.26458332px"
         y="28.410305"
         x="-149.67093"
         id="tspan5561"
         sodipodi:role="line" /></text>
    <g
       inkscape:groupmode="layer"
       id="layer4"
       inkscape:label="Layer 2" />
    <g
       inkscape:groupmode="layer"
       id="layer5"
       inkscape:label="Layer 3" />
    <path
       inkscape:connector-curvature="0"
       id="path4760-3"
       d="m -1130.5081,219.72435 c -5.8907,-0.27542 -13.5803,-0.80413 -13.8245,-0.95053 -0.1091,-0.0654 -0.1984,-1.97154 -0.1984,-4.23583 v -4.1174 l 2.4474,0.17135 c 6.0073,0.42059 12.3527,0.67556 16.9291,0.68025 l 4.9568,0.005 0.8641,-0.77139 0.864,-0.77139 0.087,-3.46195 0.087,-3.46194 -8.0246,-0.009 c -8.4744,-0.01 -10.9636,-0.24569 -13.2466,-1.25557 -2.5259,-1.11734 -4.1524,-3.28981 -4.9955,-6.6727 -0.4847,-1.9445 -0.4856,-8.89754 0,-10.84792 0.8628,-3.47614 2.7524,-5.74576 5.7027,-6.84959 2.4494,-0.91642 5.0828,-1.08791 16.7063,-1.08791 h 11.2256 v 4.36563 4.36562 h -10.0627 c -10.9412,0 -11.4012,0.0546 -12.3245,1.46381 -0.5812,0.88695 -0.6664,4.09339 -0.1418,5.33631 0.7435,1.76152 0.8577,1.78349 10.0936,1.94078 7.7542,0.13206 8.4443,0.18271 9.913,0.72772 2.7366,1.01545 4.6974,3.11027 5.5876,5.96957 0.5681,1.82459 0.8037,8.39296 0.3951,11.0127 -0.7534,4.83092 -3.1494,7.47484 -7.6482,8.43965 -1.5366,0.32954 -8.5111,0.33605 -15.3913,0.0144 z"
       style="display:inline;fill:#8c8c8c;fill-opacity:1;stroke-width:0.26458332" />
    <path
       inkscape:connector-curvature="0"
       id="path4758-6"
       d="m -1097.4352,197.78403 v -21.69584 l 5.887,0.003 5.887,0.003 7.2505,12.70687 c 3.9878,6.98878 7.3513,12.76916 7.4745,12.84528 0.1231,0.0761 0.2239,-5.6456 0.2239,-12.7149 v -12.85327 l 5.4901,0.0715 5.4901,0.0715 0.068,21.62969 0.068,21.62969 h -5.9189 -5.919 l -7.3779,-12.89844 -7.3779,-12.89844 -0.069,12.89844 -0.069,12.89844 h -5.5537 -5.5537 z"
       style="display:inline;fill:#8c8c8c;fill-opacity:1;stroke-width:0.26458332" />
    <path
       inkscape:connector-curvature="0"
       id="path4756-7"
       d="m -1037.9869,219.30869 c -0.1,-0.0999 -0.1816,-7.90083 -0.1816,-17.33543 v -17.15382 h -6.4889 -6.4888 l 0.073,-4.29948 0.073,-4.29948 h 18.5208 18.5208 l 0.073,4.29948 0.073,4.29948 h -6.4869 -6.4869 l -0.068,17.26406 -0.068,17.26407 -5.4408,0.0714 c -2.9924,0.0393 -5.5225,-0.0104 -5.6224,-0.11024 z"
       style="display:inline;fill:#8c8c8c;fill-opacity:1;stroke-width:0.26458332" />
    <path
       inkscape:connector-curvature="0"
       id="path4662-5"
       d="m -1128.1269,219.72272 c -8.3896,-0.42502 -14.706,-0.81778 -15.4119,-0.95833 l -0.7276,-0.14486 v -4.06135 -4.06136 l 0.7276,0.11825 c 1.0173,0.16533 10.2368,0.61213 16.8671,0.81742 8.078,0.25013 8.3344,0.084 8.3344,-5.4007 v -3.15517 l -8.6651,-0.1414 c -9.1169,-0.14876 -10.3858,-0.2957 -12.8483,-1.4878 -1.8108,-0.87659 -3.498,-2.89087 -4.197,-5.01076 -0.7883,-2.39049 -1.004,-9.30763 -0.3749,-12.0186 1.0347,-4.45862 3.5947,-6.88744 8.0241,-7.61292 0.8386,-0.13735 6.9123,-0.25042 13.4972,-0.25126 l 11.9724,-0.002 v 4.23333 4.23333 h -10.3441 c -9.275,0 -10.4231,0.0466 -11.1082,0.4514 -1.2106,0.71507 -1.6349,1.92197 -1.5252,4.33783 0.088,1.94161 0.1533,2.14213 0.9573,2.94656 l 0.8626,0.86317 8.2637,0.15731 c 9.1018,0.17327 10.453,0.38755 12.5712,1.99361 2.9425,2.23103 3.8636,4.90378 3.8636,11.21054 0,5.64255 -0.7516,8.31796 -2.9417,10.47127 -2.6269,2.58275 -6.097,3.06475 -17.7972,2.47202 z"
       style="display:inline;fill:#000000;fill-opacity:1;stroke-width:0.26458332" />
    <path
       inkscape:connector-curvature="0"
       id="path4660-3"
       d="m -1097.1706,197.91589 v -21.56354 l 5.7547,0.001 5.7547,0.001 7.0743,12.37888 c 3.8908,6.80838 7.2506,12.61204 7.466,12.89699 0.3478,0.45986 0.3927,-0.9319 0.4002,-12.38033 l 0.01,-12.89819 h 5.424 5.4239 v 21.56871 21.56869 l -5.7547,-0.0713 -5.7546,-0.0713 -7.4084,-12.94658 -7.4083,-12.94659 -0.069,13.01273 -0.069,13.01274 h -5.4215 -5.4214 z"
       style="display:inline;fill:#000000;fill-opacity:1;stroke-width:0.26458332" />
    <path
       inkscape:connector-curvature="0"
       id="path4658-5"
       d="m -1037.9039,202.1547 v -17.33569 h -6.4823 -6.4823 v -4.23333 -4.23333 h 18.3885 18.3886 v 4.23333 4.23333 h -6.4804 -6.4804 l -0.068,17.26406 -0.068,17.26407 -5.3578,0.0716 -5.3578,0.0716 z"
       style="display:inline;fill:#010101;fill-opacity:1;stroke-width:0.26458332" />
    <flowRoot
       transform="matrix(0.26458333,0,0,0.26458333,-886.76322,369.14112)"
       style="font-style:normal;font-weight:normal;font-size:40px;line-height:25px;font-family:sans-serif;letter-spacing:0px;word-spacing:0px;display:inline;fill:#000000;fill-opacity:1;stroke:none;stroke-width:1px;stroke-linecap:butt;stroke-linejoin:miter;stroke-opacity:1"
       id="flowRoot5553-6"
       xml:space="preserve"><flowRegion
         id="flowRegion5555-2"><rect
           y="-512.31116"
           x="-1038.0327"
           height="76.367523"
           width="579.82758"
           id="rect5557-9" /></flowRegion><flowPara
         style="font-size:74.66666412px"
         id="flowPara5559-1">Stuttgart 2017</flowPara></flowRoot>    <path
       inkscape:connector-curvature="0"
       id="path5588-2"
       d="m -1072.3812,57.07825 a 4.7001991,4.7001991 0 0 1 -3.6933,-2.839434 l -5e-4,-6.8e-5 a 4.7001991,4.7001991 0 0 1 -0.036,-0.08094 l 3e-4,-0.002 a 4.7001991,4.7001991 0 0 1 -0.295,-2.370587 4.7001991,4.7001991 0 0 1 5.2922,-4.02193 4.7001991,4.7001991 0 0 1 0.043,0.0079 l -10e-5,3.85e-4 a 4.7001991,4.7001991 0 0 1 3.979,5.284302 4.7001991,4.7001991 0 0 1 -5.2921,4.021994 z m 0.048,-0.352283 a 4.3447221,4.3447221 0 0 0 3.956,-1.567406 l -2.5531,-1.396658 -0.9293,-0.508368 -1.0315,0.240962 -2.8321,0.662218 a 4.3447221,4.3447221 0 0 0 3.39,2.569252 z m -3.4711,-2.754302 3.3943,-2.065071 0.307,-1.013641 0.8437,-2.785385 a 4.3447221,4.3447221 0 0 0 -4.7914,3.726504 4.3447221,4.3447221 0 0 0 0.2466,2.137643 z m 7.5502,1.026664 a 4.3447221,4.3447221 0 0 0 0.8129,-1.990263 4.3447221,4.3447221 0 0 0 -3.6184,-4.874683 l 0.067,2.910844 0.024,1.058828 z"
       style="display:inline;opacity:1;fill:#000000;fill-opacity:1;fill-rule:evenodd;stroke:#000000;stroke-width:0.15923393;stroke-linecap:round;stroke-linejoin:round;stroke-miterlimit:4;stroke-dasharray:none;stroke-opacity:1" />
    <rect
       style="display:inline;opacity:1;fill:#000000;fill-opacity:1;fill-rule:evenodd;stroke:#000000;stroke-width:0.15759738;stroke-linecap:round;stroke-linejoin:round;stroke-miterlimit:4;stroke-dasharray:none;stroke-opacity:1"
       id="rect5150-9-7"
       width="41.278557"
       height="58.969364"
       x="-1133.0107"
       y="236.5844"
       ry="0.0044078366"
       transform="rotate(7.7660947)" />
    <rect
       style="display:inline;opacity:1;fill:#000000;fill-opacity:1;fill-rule:evenodd;stroke:#000000;stroke-width:0.15759738;stroke-linecap:round;stroke-linejoin:round;stroke-miterlimit:4;stroke-dasharray:none;stroke-opacity:1"
       id="rect5152-7-0"
       width="16.00598"
       height="34.960411"
       x="-1091.7322"
       y="260.59335"
       ry="0.0044078366"
       transform="rotate(7.7660947)" />
    <rect
       style="display:inline;opacity:1;fill:#000000;fill-opacity:1;fill-rule:evenodd;stroke:#000000;stroke-width:0.15759738;stroke-linecap:round;stroke-linejoin:round;stroke-miterlimit:4;stroke-dasharray:none;stroke-opacity:1"
       id="rect5154-3-9"
       width="31.590752"
       height="34.9604"
       x="-1075.7263"
       y="260.59335"
       ry="0.0044078366"
       transform="rotate(7.7660947)" />
    <rect
       style="display:inline;opacity:1;fill:#000000;fill-opacity:1;fill-rule:evenodd;stroke:#000000;stroke-width:0.15759738;stroke-linecap:round;stroke-linejoin:round;stroke-miterlimit:4;stroke-dasharray:none;stroke-opacity:1"
       id="rect5156-6-3"
       width="21.537571"
       height="52.403389"
       x="-1065.6746"
       y="208.18872"
       ry="0.002728289"
       transform="rotate(7.7660947)" />
    <path
       style="display:inline;opacity:1;fill:#b7b7b7;fill-opacity:1;fill-rule:evenodd;stroke:#000000;stroke-width:0.15759738;stroke-linecap:round;stroke-linejoin:round;stroke-miterlimit:4;stroke-dasharray:none;stroke-opacity:1"
       d="m -1135.4423,93.66039 a 10.57333,10.57333 0 0 0 -11.9052,9.04769 10.57333,10.57333 0 0 0 -0.014,0.10244 l -5.2212,38.28473 c -4e-4,0.002 -7e-4,0.005 -7e-4,0.005 l 20.9395,2.85572 c 0,0 0.011,-3.9e-4 0.011,-0.003 l 5.2342,-38.37915 c 0,-1.9e-4 -5e-4,-2.5e-4 -4e-4,-5.7e-4 a 10.57333,10.57333 0 0 0 0,-0.008 10.57333,10.57333 0 0 0 -9.0476,-11.905223 z"
       id="path5158-1-6"
       inkscape:connector-curvature="0" />
    <path
       inkscape:connector-curvature="0"
       style="display:inline;opacity:1;fill:#000000;fill-opacity:1;fill-rule:evenodd;stroke:#000000;stroke-width:0.15759738;stroke-linecap:round;stroke-linejoin:round;stroke-miterlimit:4;stroke-dasharray:none;stroke-opacity:1"
       d="m -1153.1822,131.9703 c 0,0 -3e-4,0.002 -7e-4,0.005 l -0.4213,3.08977 c -3e-4,0.002 -8e-4,0.005 -8e-4,0.005 l 7.1742,0.97842 -0.7883,5.77967 c -2e-4,0.002 -7e-4,0.005 -7e-4,0.005 l 2.2639,0.30876 c 0,0 0.01,-4e-4 0.011,-0.003 l 0.7882,-5.7797 5.6808,0.77476 -0.7882,5.77969 c -3e-4,0.002 -7e-4,0.005 -7e-4,0.005 l 2.264,0.30874 c 0,0 3e-4,-0.002 6e-4,-0.005 l 0.7882,-5.77969 7.1741,0.9784 c 0,0 2e-4,-0.002 7e-4,-0.005 l 0.4213,-3.08976 c 3e-4,-0.002 7e-4,-0.005 7e-4,-0.005 l -15.1316,-2.06364 -2.2639,-0.30877 z"
       id="rect5168-2-0" />
    <circle
       style="display:inline;opacity:1;fill:#ffffff;fill-opacity:1;fill-rule:evenodd;stroke:#000000;stroke-width:0.15759738;stroke-linecap:round;stroke-linejoin:round;stroke-miterlimit:4;stroke-dasharray:none;stroke-opacity:1"
       id="path5193-9-6"
       cx="-1112.3715"
       cy="278.97891"
       r="2.189126"
       transform="rotate(7.7660947)" />
    <rect
       style="display:inline;opacity:1;fill:#ffffff;fill-opacity:1;fill-rule:evenodd;stroke:#000000;stroke-width:0.15759738;stroke-linecap:round;stroke-linejoin:round;stroke-miterlimit:4;stroke-dasharray:none;stroke-opacity:1"
       id="rect5195-3-2"
       width="3.3358109"
       height="5.4206934"
       x="-1085.3971"
       y="270.67432"
       ry="0.0044078366"
       transform="rotate(7.7660947)" />
    <rect
       style="display:inline;opacity:1;fill:#ffffff;fill-opacity:1;fill-rule:evenodd;stroke:#000000;stroke-width:0.15759738;stroke-linecap:round;stroke-linejoin:round;stroke-miterlimit:4;stroke-dasharray:none;stroke-opacity:1"
       id="rect5195-6-1-6"
       width="3.3358109"
       height="5.4206934"
       x="-1085.3971"
       y="278.94415"
       ry="0.0044078366"
       transform="rotate(7.7660947)" />
    <rect
       style="display:inline;opacity:1;fill:#ffffff;fill-opacity:1;fill-rule:evenodd;stroke:#000000;stroke-width:0.15759738;stroke-linecap:round;stroke-linejoin:round;stroke-miterlimit:4;stroke-dasharray:none;stroke-opacity:1"
       id="rect5195-0-9-1"
       width="3.3358109"
       height="5.4206934"
       x="-1072.1016"
       y="270.67432"
       ry="0.0044078366"
       transform="rotate(7.7660947)" />
    <rect
       style="display:inline;opacity:1;fill:#ffffff;fill-opacity:1;fill-rule:evenodd;stroke:#000000;stroke-width:0.15759738;stroke-linecap:round;stroke-linejoin:round;stroke-miterlimit:4;stroke-dasharray:none;stroke-opacity:1"
       id="rect5195-62-4-8"
       width="3.3358109"
       height="5.4206934"
       x="-1061.4689"
       y="270.67432"
       ry="0.0044078366"
       transform="rotate(7.7660947)" />
    <rect
       style="display:inline;opacity:1;fill:#ffffff;fill-opacity:1;fill-rule:evenodd;stroke:#000000;stroke-width:0.15759738;stroke-linecap:round;stroke-linejoin:round;stroke-miterlimit:4;stroke-dasharray:none;stroke-opacity:1"
       id="rect5195-61-7-7"
       width="3.3358109"
       height="5.4206934"
       x="-1050.8361"
       y="270.67432"
       ry="0.0044078366"
       transform="rotate(7.7660947)" />
    <rect
       style="display:inline;opacity:1;fill:#ffffff;fill-opacity:1;fill-rule:evenodd;stroke:#000000;stroke-width:0.15759738;stroke-linecap:round;stroke-linejoin:round;stroke-miterlimit:4;stroke-dasharray:none;stroke-opacity:1"
       id="rect5195-8-8-9"
       width="3.3358109"
       height="5.4206934"
       x="-1072.1016"
       y="278.94415"
       ry="0.0044078366"
       transform="rotate(7.7660947)" />
    <rect
       style="display:inline;opacity:1;fill:#ffffff;fill-opacity:1;fill-rule:evenodd;stroke:#000000;stroke-width:0.15759738;stroke-linecap:round;stroke-linejoin:round;stroke-miterlimit:4;stroke-dasharray:none;stroke-opacity:1"
       id="rect5195-7-4-2"
       width="3.3358109"
       height="5.4206934"
       x="-1061.4689"
       y="278.94415"
       ry="0.0044078366"
       transform="rotate(7.7660947)" />
    <rect
       style="display:inline;opacity:1;fill:#ffffff;fill-opacity:1;fill-rule:evenodd;stroke:#000000;stroke-width:0.15759738;stroke-linecap:round;stroke-linejoin:round;stroke-miterlimit:4;stroke-dasharray:none;stroke-opacity:1"
       id="rect5195-9-5-0"
       width="3.3358109"
       height="5.4206934"
       x="-1050.8361"
       y="278.94415"
       ry="0.0044078366"
       transform="rotate(7.7660947)" />
    <rect
       style="display:inline;opacity:1;fill:#ffffff;fill-opacity:1;fill-rule:evenodd;stroke:#000000;stroke-width:0.15759738;stroke-linecap:round;stroke-linejoin:round;stroke-miterlimit:4;stroke-dasharray:none;stroke-opacity:1"
       id="rect5195-2-0-2"
       width="3.3358109"
       height="5.4206934"
       x="-1061.4689"
       y="287.21396"
       ry="0.0044078366"
       transform="rotate(7.7660947)" />
    <rect
       style="display:inline;opacity:1;fill:#ffffff;fill-opacity:1;fill-rule:evenodd;stroke:#000000;stroke-width:0.15759738;stroke-linecap:round;stroke-linejoin:round;stroke-miterlimit:4;stroke-dasharray:none;stroke-opacity:1"
       id="rect5195-02-3-3"
       width="3.3358109"
       height="5.4206934"
       x="-1050.8361"
       y="287.21396"
       ry="0.0044078366"
       transform="rotate(7.7660947)" />
    <rect
       style="display:inline;opacity:1;fill:#ffffff;fill-opacity:1;fill-rule:evenodd;stroke:#000000;stroke-width:0.13434783;stroke-linecap:round;stroke-linejoin:round;stroke-miterlimit:4;stroke-dasharray:none;stroke-opacity:1"
       id="rect5195-0-3-6-7"
       width="3.3367333"
       height="3.9382019"
       x="-1072.105"
       y="263.47308"
       ry="0.0032023489"
       transform="rotate(7.7660947)" />
    <rect
       style="display:inline;opacity:1;fill:#ffffff;fill-opacity:1;fill-rule:evenodd;stroke:#000000;stroke-width:0.13434783;stroke-linecap:round;stroke-linejoin:round;stroke-miterlimit:4;stroke-dasharray:none;stroke-opacity:1"
       id="rect5195-62-7-1-5"
       width="3.3367333"
       height="3.9382019"
       x="-1061.4694"
       y="263.47308"
       ry="0.0032023489"
       transform="rotate(7.7660947)" />
    <rect
       style="display:inline;opacity:1;fill:#ffffff;fill-opacity:1;fill-rule:evenodd;stroke:#000000;stroke-width:0.13434783;stroke-linecap:round;stroke-linejoin:round;stroke-miterlimit:4;stroke-dasharray:none;stroke-opacity:1"
       id="rect5195-61-5-0-9"
       width="3.3367333"
       height="3.9382019"
       x="-1050.8336"
       y="263.47308"
       ry="0.0032023489"
       transform="rotate(7.7660947)" />
    <path
       inkscape:connector-curvature="0"
       style="display:inline;opacity:1;fill:#ffffff;fill-opacity:1;fill-rule:evenodd;stroke:#000000;stroke-width:0.1835779;stroke-linecap:round;stroke-linejoin:round;stroke-miterlimit:4;stroke-dasharray:none;stroke-opacity:1"
       d="m -1099.5579,140.89502 c -0.9156,-0.12486 -1.7699,0.63452 -1.9155,1.70239 l -0.2925,2.14402 -0.1758,1.28867 -0.2628,1.92738 1.6526,0.22537 1.6526,0.22538 0.2629,-1.92735 0.1758,-1.28867 0.2924,-2.14405 c 0.1456,-1.06787 -0.4742,-2.02829 -1.3897,-2.15314 z"
       id="rect5195-8-9-6-2" />
    <path
       inkscape:connector-curvature="0"
       style="display:inline;opacity:1;fill:#ffffff;fill-opacity:1;fill-rule:evenodd;stroke:#000000;stroke-width:0.1835779;stroke-linecap:round;stroke-linejoin:round;stroke-miterlimit:4;stroke-dasharray:none;stroke-opacity:1"
       d="m -1112.7317,139.09846 c -0.9156,-0.12487 -1.7699,0.63453 -1.9155,1.7024 l -0.2924,2.14402 -0.1758,1.28869 -0.2628,1.92737 1.6526,0.22538 1.6526,0.22537 0.2628,-1.92737 0.1758,-1.28868 0.2923,-2.14403 c 0.1457,-1.06787 -0.4741,-2.02829 -1.3896,-2.15315 z"
       id="rect5195-8-9-2-3-2" />
    <rect
       style="display:inline;opacity:1;fill:#000000;fill-opacity:1;fill-rule:evenodd;stroke:#000000;stroke-width:0.15759738;stroke-linecap:round;stroke-linejoin:round;stroke-miterlimit:4;stroke-dasharray:none;stroke-opacity:1"
       id="rect5323-2-8"
       width="16.053591"
       height="1.8763937"
       x="-1062.9326"
       y="206.18269"
       ry="0.0027282974"
       transform="rotate(7.7660947)" />
    <rect
       style="display:inline;opacity:1;fill:#000000;fill-opacity:1;fill-rule:evenodd;stroke:#000000;stroke-width:0.088;stroke-linecap:round;stroke-linejoin:miter;stroke-miterlimit:4;stroke-dasharray:none;stroke-opacity:1"
       id="rect5325-0-9"
       width="0.14742343"
       height="4.9506588"
       x="-1054.9797"
       y="201.10933"
       ry="0"
       transform="rotate(7.7660947)" />
    <rect
       style="display:inline;opacity:1;fill:#ffffff;fill-opacity:1;fill-rule:evenodd;stroke:#000000;stroke-width:0.15759738;stroke-linecap:round;stroke-linejoin:round;stroke-miterlimit:4;stroke-dasharray:none;stroke-opacity:1"
       id="rect5327-6-7"
       width="8.5480156"
       height="9.5904579"
       x="-1059.1801"
       y="210.49054"
       ry="0.0044078366"
       transform="rotate(7.7660947)" />
    <rect
       style="display:inline;opacity:1;fill:#ffffff;fill-opacity:1;fill-rule:evenodd;stroke:#000000;stroke-width:0.15759738;stroke-linecap:round;stroke-linejoin:round;stroke-miterlimit:4;stroke-dasharray:none;stroke-opacity:1"
       id="rect5329-1-3"
       width="7.2970872"
       height="2.7103467"
       x="-1058.5546"
       y="232.79884"
       ry="0.0044078366"
       transform="rotate(7.7660947)" />
    <rect
       style="display:inline;opacity:1;fill:#ffffff;fill-opacity:1;fill-rule:evenodd;stroke:#000000;stroke-width:0.15759738;stroke-linecap:round;stroke-linejoin:round;stroke-miterlimit:4;stroke-dasharray:none;stroke-opacity:1"
       id="rect5329-2-5-6"
       width="7.2970872"
       height="2.7103467"
       x="-1058.5546"
       y="242.02446"
       ry="0.0044078366"
       transform="rotate(7.7660947)" />
    <rect
       style="display:inline;opacity:1;fill:#ffffff;fill-opacity:1;fill-rule:evenodd;stroke:#000000;stroke-width:0.15759738;stroke-linecap:round;stroke-linejoin:round;stroke-miterlimit:4;stroke-dasharray:none;stroke-opacity:1"
       id="rect5329-8-5-1"
       width="7.2970872"
       height="2.7103467"
       x="-1058.5546"
       y="251.25005"
       ry="0.0044078366"
       transform="rotate(7.7660947)" />
    <circle
       style="display:inline;opacity:1;fill:#ffffff;fill-opacity:1;fill-rule:evenodd;stroke:#000000;stroke-width:0.15759738;stroke-linecap:round;stroke-linejoin:round;stroke-miterlimit:4;stroke-dasharray:none;stroke-opacity:1"
       id="path5352-4-2"
       cx="-1054.906"
       cy="226.02296"
       r="4.2740107"
       transform="rotate(7.7660947)" />
    <path
       sodipodi:nodetypes="csccccccccccccccccccsscc"
       inkscape:connector-curvature="0"
       id="path4754-9"
       d="m -1092.8736,142.06256 c -8.1701,0.0193 -17.2883,0.40319 -23.7428,1.08262 -8.158,0.85876 -20.1088,2.76248 -23.4818,3.74034 -0.5831,0.15442 -3.7324,0.81806 -6.0595,1.38649 -15.3286,3.8507 -28.7342,9.39695 -37.5972,15.5546 -1.2301,0.6988 -2.4953,1.86861 -3.204,2.41951 -0.8896,0.68687 -4.9742,4.56612 -6.3675,6.37687 -1.6123,2.0952 -2.9082,4.55554 -3.637,6.905 -0.879,2.83354 -0.8285,6.75137 0.1219,9.47384 3.6204,10.37092 16.677,19.82411 39.2142,28.39155 v -5.3e-4 c 2.6194,0.99575 4.8048,1.81343 4.8565,1.81643 0.052,0.003 -1.0809,-1.22524 -2.5171,-2.72955 -7.7976,-8.16702 -11.0161,-16.30554 -9.4651,-23.93291 0.9086,-4.46824 3.2831,-8.5282 7.3846,-12.62558 12.2052,-12.19299 36.8957,-20.73944 68.1359,-23.58461 7.3111,-0.66547 25.2819,-0.6645 32.4114,0.002 21.541,2.01399 39.2414,6.858 53.3136,14.58981 l 1.7197,0.94464 -1.6856,-1.62005 c -3.8709,-3.72065 -9.9882,-8.1316 -15.7789,-11.37709 -16.4063,-9.19507 -36.1331,-14.53586 -60.7198,-16.43929 -3.4396,-0.26629 -8.0001,-0.38572 -12.9021,-0.37415 z"
       style="display:inline;fill:#125ba1;fill-opacity:1;stroke-width:0.26458332" />
    <path
       style="display:inline;opacity:1;fill:#040404;fill-opacity:1;fill-rule:evenodd;stroke:#000000;stroke-width:0.2;stroke-linecap:round;stroke-linejoin:round;stroke-miterlimit:4;stroke-dasharray:none;stroke-opacity:1"
       d="m -1192.5854,144.00803 c -0.015,0.004 -0.028,0.009 -0.04,0.018 l -1.0081,0.69783 -3.4409,2.37859 -0.733,0.5065 c -0.4591,0.3174 -0.5257,1.01081 -0.1498,1.55457 l 2.1444,3.10277 -7.8475,5.42466 c -0.7118,0.49183 -0.888,1.46073 -0.396,2.17211 l 2.2189,3.21031 c 0.4918,0.71137 1.4608,0.88782 2.1721,0.39606 l 12.8793,-8.90325 c 0.026,-0.0184 0.051,-0.039 0.075,-0.0587 l 0.9002,-0.62228 c 0.3827,-0.26454 -0.8288,-2.67587 -2.7167,-5.40684 -1.8289,-2.64557 -3.6018,-4.59166 -4.0586,-4.47024 z m -0.1554,2.12594 c 0.355,-0.0741 0.7346,0.0642 0.9544,0.38217 l 0.7049,1.02056 c 0.293,0.4239 0.1882,1.00108 -0.2361,1.29416 l -2.7629,1.91002 c -0.424,0.29305 -1.0013,0.18732 -1.2943,-0.23657 l -0.7054,-1.01999 c -0.293,-0.42389 -0.1872,-1.00124 0.2367,-1.29423 l 2.7629,-1.91002 c 0.106,-0.0733 0.2216,-0.12139 0.3398,-0.14614 z"
       id="rect4537-3"
       inkscape:connector-curvature="0" />
    <rect
       style="display:inline;opacity:1;fill:#040404;fill-opacity:1;fill-rule:evenodd;stroke:#000000;stroke-width:0.2;stroke-linecap:round;stroke-linejoin:round;stroke-miterlimit:4;stroke-dasharray:none;stroke-opacity:1"
       id="rect4539-1"
       width="29.963419"
       height="4.896461"
       x="1053.6547"
       y="-545.22986"
       ry="2.4482305"
       transform="matrix(-0.82258673,0.56863966,0.56863966,0.82258673,0,0)" />
    <path
       style="display:inline;opacity:1;fill:#040404;fill-opacity:1;fill-rule:evenodd;stroke:#000000;stroke-width:0.2;stroke-linecap:round;stroke-linejoin:round;stroke-miterlimit:4;stroke-dasharray:none;stroke-opacity:1"
       d="m -1186.5426,152.76994 -1.8027,-2.52666 3.7778,-14.71279 3.5819,3.9313 z"
       id="path4550-4"
       inkscape:connector-curvature="0"
       sodipodi:nodetypes="ccccc" />
    <path
       style="display:inline;opacity:1;fill:#040404;fill-opacity:1;fill-rule:evenodd;stroke:#000000;stroke-width:0.2;stroke-linecap:round;stroke-linejoin:round;stroke-miterlimit:4;stroke-dasharray:none;stroke-opacity:1"
       d="m -1184.5675,135.53049 11.9898,-1.5326 0.5888,1.83991 -8.9967,3.62399"
       id="path4552-7"
       inkscape:connector-curvature="0"
       sodipodi:nodetypes="cccc" />
    <path
       style="display:inline;opacity:1;fill:#040404;fill-opacity:1;fill-rule:evenodd;stroke:#000000;stroke-width:0.2;stroke-linecap:round;stroke-linejoin:round;stroke-miterlimit:4;stroke-dasharray:none;stroke-opacity:1"
       d="m -1176.893,131.18108 1.2868,-1.11293 c 0.8639,-0.95774 0.9618,-0.24722 1.5817,0.63735 l 6.8743,9.80909 -0.948,0.89113 -8.7638,-8.61842 c -0.955,-0.84153 -0.9471,-0.81386 -0.031,-1.60622 z"
       id="path4554-8"
       inkscape:connector-curvature="0"
       sodipodi:nodetypes="ccccccc" />
    <path
       style="display:inline;opacity:1;fill:#040404;fill-opacity:1;fill-rule:evenodd;stroke:#000000;stroke-width:0.2;stroke-linecap:round;stroke-linejoin:round;stroke-miterlimit:4;stroke-dasharray:none;stroke-opacity:1"
       d="m -1160.6711,142.58582 a 3.818509,7.1619883 50.180029 0 1 -7.0442,0.967 3.818509,7.1619883 50.180029 0 1 2.2192,-6.75389 z"
       id="path4556-4"
       inkscape:connector-curvature="0" />
    <path
       style="display:inline;opacity:1;fill:#040404;fill-opacity:1;fill-rule:evenodd;stroke:#000000;stroke-width:0.2;stroke-linecap:round;stroke-linejoin:round;stroke-miterlimit:4;stroke-dasharray:none;stroke-opacity:1"
       d="m -1160.6711,142.58582 1.0327,-1.27163 -0.1295,-0.14764 -1.3263,0.88355"
       id="path4561-5"
       inkscape:connector-curvature="0"
       sodipodi:nodetypes="cccc" />
    <rect
       style="opacity:1;fill:#040404;fill-opacity:1;fill-rule:evenodd;stroke:#000000;stroke-width:0.2;stroke-linecap:round;stroke-linejoin:round;stroke-miterlimit:4;stroke-dasharray:none;stroke-opacity:1"
       id="rect4728"
       width="10.15833"
       height="4.3118091"
       x="1066.3861"
       y="-548.79706"
       transform="matrix(-0.82258673,0.56863966,0.56863966,0.82258673,0,0)" />
  </g>
</svg>
